# xmcd
#
# Track frame offsets: 
#        150
#        17221
#        33003
#        54964
#        69074
#        82174
#        97887
#        115432
#        135436
#
# Disc length: 2051 seconds
#
# Revision: 0
# Processed by: cddbd v1.5.2PL0 Copyright (c) Steve Scherf et al.
# Submitted via: ExactAudioCopy v1.1
#
DISCID=66080109
DTITLE=Spirit Level - Kolossi Blues
DYEAR=2014
DGENRE=Blues Rock
TTITLE0=What You See Is What You Get
TTITLE1=It's Gone
TTITLE2=It's A Hard Life
TTITLE3=Foolish Pride
TTITLE4=Kolossi Blues
TTITLE5=The Gambler
TTITLE6=Sarah
TTITLE7=She's So Hot
TTITLE8=Feel The Blues
EXTD=
EXTT0=
EXTT1=
EXTT2=
EXTT3=
EXTT4=
EXTT5=
EXTT6=
EXTT7=
EXTT8=
PLAYORDER=
